# AST/ASF file generated using VICON BodyLanguage
# -----------------------------------------------
:version 1.10
:name VICON
:units
  mass 1.0
  length 0.45
  angle deg
:documentation
   .ast/.asf automatically generated from VICON data using
   VICON BodyBuilder and BodyLanguage model FoxedUp or BRILLIANT.MOD
:root
   order TX TY TZ RX RY RZ
   axis XYZ
   position 0 0 0  
   orientation 0 0 0 
:bonedata
  begin
     id 1 
     name lhipjoint
     direction 0.653368 -0.678499 0.335782 
     length 2.51848 
     axis 0 0 0  XYZ
  end
  begin
     id 2 
     name lfemur
     direction 0.34202 -0.939693 0  
     length 6.57749  
     axis 0 0 20  XYZ
    dof rx ry rz
    limits (-160.0 20.0)
           (-70.0 70.0)
           (-60.0 70.0)
  end
  begin
     id 3 
     name ltibia
     direction 0.34202 -0.939693 0   
     length 7.94618   
     axis 0 0 20   XYZ
    dof rx
    limits (-10.0 170.0)
  end
  begin
     id 4 
     name lfoot
     direction 0.0811271 -0.222895 0.971461   
     length 2.31339   
     axis -90 7.62852e-016 20   XYZ
    dof rx rz
    limits (-45.0 90.0)
           (-70.0 20.0)
  end
  begin
     id 5 
     name ltoes
     direction 1.53568e-011 -4.21885e-011 1   
     length 1.15935   
     axis -90 7.62852e-016 20   XYZ
    dof rx
    limits (-90.0 20.0)
  end
  begin
     id 6 
     name rhipjoint
     direction -0.640058 -0.688614 0.340788   
     length 2.48149  
     axis 0 0 0  XYZ 
  end
  begin
     id 7 
     name rfemur
     direction -0.34202 -0.939693 0   
     length 6.57875   
     axis 0 0 -20   XYZ
    dof rx ry rz
    limits (-160.0 20.0)
           (-70.0 70.0)
           (-70.0 60.0)
  end
  begin
     id 8 
     name rtibia
     direction -0.34202 -0.939693 0   
     length 7.977   
     axis 0 0 -20   XYZ
    dof rx
    limits (-10.0 170.0)
 end
 begin
     id 9 
     name rfoot
     direction -0.0979793 -0.269196 0.958089   
     length 2.19857  
     axis -90 -7.62852e-016 -20   XYZ
    dof rx rz
    limits (-45.0 90.0)
           (-20.0 70.0)
  end
  begin
     id 10 
     name rtoes
     direction -1.53556e-011 -4.21868e-011 1   
     length 1.09838   
     axis -90 -7.62852e-016 -20   XYZ
    dof rx
    limits (-90.0 20.0)
  end
  begin
     id 11 
     name lowerback
     direction 0.0149039 0.998517 -0.0523597   
     length 2.10809   
     axis 0 0 0   XYZ
    dof rx ry rz
    limits (-20.0 45.0)
           (-30.0 30.0)
           (-30.0 30.0)
  end
  begin
     id 12 
     name upperback
     direction -0.00882659 0.999418 -0.0329624   
     length 2.1102   
     axis 0 0 0   XYZ
    dof rx ry rz
    limits (-20.0 45.0)
           (-30.0 30.0)
           (-30.0 30.0)
  end
  begin
     id 13 
     name thorax
     direction -0.0165585 0.999826 -0.0085833   
     length 2.11039   
     axis 0 0 0   XYZ
    dof rx ry rz
    limits (-20.0 45.0)
           (-30.0 30.0)
           (-30.0 30.0)
  end
  begin
     id 14 
     name lowerneck
     direction -0.0130877 0.999911 0.00260353   
     length 1.73253   
     axis 0 0 0   XYZ
    dof rx ry rz
    limits (-20.0 45.0)
           (-30.0 30.0)
           (-30.0 30.0)
  end
  begin
     id 15 
     name upperneck
     direction -0.0348454 0.928205 -0.370435   
     length 1.66692   
     axis 0 0 0   XYZ
    dof rx ry rz
    limits (-20.0 45.0)
           (-30.0 30.0)
           (-30.0 30.0)
  end
  begin
     id 16
     name head
     direction -0.00807754 0.992494 -0.122026  
     length 1.72765  
     axis 0 0 0   XYZ
    dof rx ry rz
    limits (-20.0 45.0)
           (-30.0 30.0)
           (-30.0 30.0)
  end
  begin
     id 17 
     name lclavicle
     direction 0.987582 0.144023 0.0627671  
     length 3.49235  
     axis 0 0 0   XYZ
    dof ry rz
    limits (-20.0 10.0)
           (0.0 20.0)
  end
  begin
     id 18 
     name lhumerus
     direction 1 -4.48958e-011 -1.45183e-018   
     length 5.41917   
     axis 180 -30 -90   XYZ
    dof rx ry rz
    limits (-60.0 90.0)
           (-90.0 90.0)
           (-90.0 90.0)
  end
  begin
     id 19
     name lradius
     direction 1 -4.48999e-011 5.75106e-027   
     length 2.44373   
     axis 180 -30 -90   XYZ
    dof rx
    limits (-10.0 170.0)
  end
  begin
     id 20
     name lwrist
     direction 1 -4.48987e-011 1.53461e-026   
     length 1.22186   
     axis -1.09697e-014 90 90   XYZ
    dof ry
    limits (-180.0 0.0)
 end
  begin
     id 21 
     name lhand
     direction 1 -4.48881e-011 3.06923e-026   
     length 0.727502   
     axis -1.95843e-014 90 90   XYZ
    dof rx rz
    limits (-90.0 90.0)
           (-45.0 45.0)
  end
  begin
     id 22 
     name lfingers
     direction 1 -4.48907e-011 6.13845e-026   
     length 0.586531   
     axis -3.91686e-014 90 90   XYZ
    dof rx
    limits (0.0 90.0)
  end
  begin
     id 23
     name lthumb
     direction 0.707107 -6.3487e-011 0.707107   
     length 0.842145   
     axis -90 45 2.85299e-015   XYZ
    dof rx rz
    limits (-45.0 45.0)
           (-45.0 45.0)
  end
  begin
     id 24 
     name rclavicle
     direction -0.980998 0.169556 0.0943023   
     length 3.29272  
     axis 0 0 0   XYZ 
    dof ry rz
    limits (-10.0 20.0)
           (-20.0 0.0)
  end
  begin
     id 25 
     name rhumerus
     direction -1 -1.83355e-005 2.45537e-005  
     length 5.58976   
     axis 180 30 90   XYZ
    dof rx ry rz
    limits (-90.0 60.0)
           (-90.0 90.0)
           (-90.0 90.0)
  end
  begin
     id 26 
     name rradius
     direction -1 -4.48967e-011 5.97228e-027   
     length 2.4806   
     axis 180 30 90   XYZ
    dof rx
    limits (-10.0 170.0)
  end
  begin
     id 27 
     name rwrist
     direction -1 -4.48963e-011 1.53461e-026   
     length 1.2403   
     axis -1.09697e-014 -90 -90   XYZ
    dof ry
    limits (-180.0 0.0)
  end
  begin
     id 28
     name rhand
     direction -1 -4.48881e-011 3.06923e-026   
     length 0.816009   
     axis -1.95843e-014 -90 -90   XYZ
    dof rx rz
    limits (-90.0 90.0)
           (-45.0 45.0)
  end
  begin
     id 29
     name rfingers
     direction -1 -4.49018e-011 6.13845e-026   
     length 0.657887   
     axis -3.91686e-014 -90 -90   XYZ
    dof rx
    limits (0.0 90.0)
  end
  begin
     id 30
     name rthumb
     direction -0.707107 -6.34872e-011 0.707107   
     length 0.944599   
     axis -90 -45 -2.85299e-015   XYZ
    dof rx rz
    limits (-45.0 45.0)
           (-45.0 45.0)
  end
:hierarchy
  begin
    root lhipjoint rhipjoint lowerback
    lhipjoint lfemur
    lfemur ltibia
    ltibia lfoot
    lfoot ltoes
    rhipjoint rfemur
    rfemur rtibia
    rtibia rfoot
    rfoot rtoes
    lowerback upperback
    upperback thorax
    thorax lowerneck lclavicle rclavicle
    lowerneck upperneck
    upperneck head
    lclavicle lhumerus
    lhumerus lradius
    lradius lwrist
    lwrist lhand lthumb
    lhand lfingers
    rclavicle rhumerus
    rhumerus rradius
    rradius rwrist
    rwrist rhand rthumb
    rhand rfingers
  end

#!OML:ASF F:\VICON\USERDATA\INSTALL\rory3\rory3.ASF
:FULLY-SPECIFIED
:DEGREES
36
root 0.458969 16.313 -13.901 32.3952 -5.00461 -1.93331
lowerback -13.7887 0.92943 -2.09854
upperback -7.71778 1.44907 1.62483
thorax -0.495466 0.827319 3.06552
lowerneck -10.4572 -1.01822 0.86573
upperneck 42.6926 -2.6998 1.74363
head 17.4951 -0.738333 0.180529
rclavicle -7.05686e-015 6.75868e-015
rhumerus -53.9532 13.6297 -90.3117
rradius 21.6245
rwrist -19.4624
rhand 26.4782 5.89774
rfingers 7.12502
rthumb 50.5147 -15.0505
lclavicle -7.05686e-015 6.75868e-015
lhumerus -56.2261 -18.5441 94.1176
lradius 45.0597
lwrist 8.88325
lhand 21.4061 17.9251
lfingers 7.12502
lthumb 45.8427 41.0849
rfemur -23.414 -6.45691 32.4904
rtibia 43.8055
rfoot 6.08961 -31.0504
rtoes 34.1784
lfemur -56.1778 7.45164 -37.1807
ltibia 40.7265
lfoot -41.6416 27.5433
ltoes 14.2403
37
root 0.463632 16.3079 -13.8911 32.2726 -4.84004 -1.82623
lowerback -13.9471 0.849919 -2.12617
upperback -7.47203 1.34748 1.72158
thorax -0.148143 0.770567 3.17666
lowerneck -10.5493 -1.05534 0.837709
upperneck 42.561 -2.71578 1.66799
head 17.44 -0.760002 0.14675
rclavicle 1.41634e-014 3.97569e-015
rhumerus -53.7353 13.8507 -90.3459
rradius 21.8184
rwrist -19.9399
rhand 26.6536 5.53028
rfingers 7.12502
rthumb 50.6748 -15.3308
lclavicle 1.41634e-014 3.97569e-015
lhumerus -55.7497 -18.0647 93.9403
lradius 44.7439
lwrist 8.49235
lhand 21.7792 17.948
lfingers 7.12502
lthumb 46.1888 40.9635
rfemur -23.4064 -6.7455 32.5119
rtibia 44.0519
rfoot 5.01 -30.1807
rtoes 31.533
lfemur -56.0324 7.4788 -37.2982
ltibia 40.7711
lfoot -41.4354 27.5539
ltoes 13.9014
38
root 0.466841 16.3069 -13.8813 32.3353 -4.68167 -1.92132
lowerback -13.9901 0.76891 -1.94759
upperback -7.44196 1.21627 1.88659
thorax -0.0838803 0.700983 3.23262
lowerneck -10.7204 -1.02044 0.666265
upperneck 42.6574 -2.65914 1.75099
head 17.5459 -0.751483 0.224798
rclavicle -3.97569e-015 -1.82882e-014
rhumerus -53.7641 14.124 -90.4466
rradius 21.9801
rwrist -20.0871
rhand 26.8092 5.5115
rfingers 7.12502
rthumb 50.8168 -15.2716
lclavicle -3.97569e-015 -1.82882e-014
lhumerus -55.5551 -17.4222 93.7732
lradius 44.5304
lwrist 8.23667
lhand 21.8857 17.7837
lfingers 7.12502
lthumb 46.2876 40.7575
rfemur -23.5514 -7.00119 32.743
rtibia 44.2149
rfoot 4.61974 -28.8059
rtoes 26.8237
lfemur -56.1111 7.51065 -37.2267
ltibia 40.8586
lfoot -41.3635 27.4942
ltoes 13.6453
39
root 0.470918 16.3049 -13.8754 32.4128 -4.48054 -1.97679
lowerback -13.9879 0.731538 -1.75855
upperback -7.47193 1.14284 1.9851
thorax -0.109228 0.661207 3.2187
lowerneck -10.8174 -0.997723 0.69105
upperneck 42.7726 -2.60975 1.68032
head 17.6368 -0.734211 0.196275
rclavicle -8.74653e-015 -6.36111e-015
rhumerus -53.9286 14.4087 -90.7691
rradius 22.1082
rwrist -20.244
rhand 26.765 5.45198
rfingers 7.12502
rthumb 50.7765 -15.3533
lclavicle -8.74653e-015 -6.36111e-015
lhumerus -55.5462 -17.0207 93.7309
lradius 44.4394
lwrist 8.21507
lhand 21.7194 17.5514
lfingers 7.12502
lthumb 46.1333 40.5903
rfemur -23.6683 -7.24168 32.9344
rtibia 44.3135
rfoot 4.61682 -28.2006
rtoes 24.7802
lfemur -56.2462 7.4927 -37.1865
ltibia 40.9985
lfoot -41.386 27.2611
ltoes 13.4394
40
root 0.477966 16.299 -13.8681 32.4003 -4.1144 -2.0881
lowerback -13.9863 0.736389 -1.36997
upperback -7.50025 1.10275 2.03867
thorax -0.129072 0.63156 3.04911
lowerneck -10.7878 -0.993139 0.959236
upperneck 42.8907 -2.5673 1.40281
head 17.6873 -0.708003 0.0275676
rclavicle -1.03368e-014 -4.77083e-015
rhumerus -54.0702 14.491 -91.0798
rradius 22.0225
rwrist -20.44
rhand 26.4687 5.79539
rfingers 7.12502
rthumb 50.506 -15.1575
lclavicle -1.03368e-014 -4.77083e-015
lhumerus -55.6756 -16.7169 93.6684
lradius 44.4268
lwrist 8.10099
lhand 21.802 17.7245
lfingers 7.12502
lthumb 46.2099 40.7311
rfemur -23.6145 -7.52617 33.2016
rtibia 44.3844
rfoot 4.23549 -27.7112
rtoes 24.2124
lfemur -56.3036 7.50789 -37.0747
ltibia 41.1509
lfoot -41.0461 27.2811
ltoes 12.618
41
root 0.484023 16.2938 -13.8638 32.365 -3.87629 -2.26429
lowerback -13.9221 0.805294 -1.03173
upperback -7.54421 1.15361 2.13797
thorax -0.207202 0.650865 2.96667
lowerneck -10.6506 -1.01785 1.03526
upperneck 42.9691 -2.54834 1.22409
head 17.6911 -0.709702 -0.0636983
rclavicle 1.55052e-014 4.37326e-015
rhumerus -54.2407 14.4217 -91.1448
rradius 22.0127
rwrist -20.5718
rhand 26.3712 6.06389
rfingers 7.12502
rthumb 50.417 -14.9371
lclavicle 1.55052e-014 4.37326e-015
lhumerus -55.7733 -16.5065 93.7575
lradius 44.4362
lwrist 8.31112
lhand 21.7086 18.163
lfingers 7.12502
lthumb 46.1233 41.206
rfemur -23.5586 -7.58721 33.4602
rtibia 44.4575
rfoot 4.59408 -27.1446
rtoes 23.3294
lfemur -56.2813 7.44521 -36.8189
ltibia 41.2746
lfoot -41.1582 27.0867
ltoes 13.0958
42
root 0.486154 16.2888 -13.8643 32.3043 -3.87607 -2.13279
lowerback -13.7382 0.822084 -1.12463
upperback -7.61856 1.18817 2.16048
thorax -0.388526 0.67451 3.04245
lowerneck -10.4735 -1.03592 0.966214
upperneck 42.9884 -2.53169 1.18124
head 17.6552 -0.719441 -0.0659618
rclavicle -1.58034e-014 -1.27222e-014
rhumerus -54.478 14.3053 -91.1256
rradius 22.2302
rwrist -20.5425
rhand 26.59 5.91315
rfingers 7.12502
rthumb 50.6168 -14.9796
lclavicle -1.58034e-014 -1.27222e-014
lhumerus -55.8553 -16.4148 93.9957
lradius 44.2795
lwrist 8.91859
lhand 20.9298 18.1113
lfingers 7.12502
lthumb 45.4002 41.4515
rfemur -23.5498 -7.52386 33.3233
rtibia 44.553
rfoot 4.2779 -26.2553
rtoes 22.2557
lfemur -56.2287 7.49115 -37.0078
ltibia 41.3224
lfoot -41.2186 26.848
ltoes 13.5159
43
root 0.489475 16.288 -13.8634 32.2369 -3.79037 -1.97623
lowerback -13.5654 0.771038 -1.23403
upperback -7.59236 1.13253 2.21957
thorax -0.45357 0.651659 3.15563
lowerneck -10.5286 -1.04471 0.886325
upperneck 42.8999 -2.49382 1.1216
head 17.616 -0.724902 -0.0728329
rclavicle 1.5704e-014 4.81059e-014
rhumerus -54.5508 14.3931 -91.1297
rradius 22.5049
rwrist -20.7003
rhand 26.7798 5.72817
rfingers 7.12502
rthumb 50.79 -15.0697
lclavicle 1.5704e-014 4.81059e-014
lhumerus -55.7665 -16.1448 94.0487
lradius 44.2801
lwrist 9.35002
lhand 20.3177 18.0147
lfingers 7.12502
lthumb 44.8309 41.5806
rfemur -23.5471 -7.60742 33.1865
rtibia 44.6413
rfoot 3.71577 -24.9902
rtoes 19.7364
lfemur -56.1543 7.5823 -37.2571
ltibia 41.3074
lfoot -40.8999 26.8763
ltoes 12.834
44
root 0.492815 16.2894 -13.8589 32.1915 -3.65839 -1.85007
lowerback -13.5835 0.710482 -1.26969
upperback -7.41705 1.05382 2.27424
thorax -0.255859 0.609935 3.22519
lowerneck -10.6929 -1.03634 0.859541
upperneck 42.6461 -2.44041 1.06008
head 17.5073 -0.717225 -0.0886266
rclavicle 9.14409e-015 6.75868e-015
rhumerus -54.2448 14.4323 -91.0439
rradius 22.4403
rwrist -20.7658
rhand 26.8325 5.91666
rfingers 7.12502
rthumb 50.8381 -14.8547
lclavicle 9.14409e-015 6.75868e-015
lhumerus -55.4234 -15.6937 93.7683
lradius 44.4776
lwrist 9.27051
lhand 20.3935 18.0096
lfingers 7.12502
lthumb 44.9014 41.5479
rfemur -23.599 -7.75012 33.0814
rtibia 44.7168
rfoot 6.71036 -25.0482
rtoes 20.1056
lfemur -56.0269 7.65914 -37.4751
ltibia 41.2148
lfoot -40.5311 26.8765
ltoes 12.3568
45
root 0.49253 16.2901 -13.8564 32.1356 -3.56579 -1.67663
lowerback -13.6052 0.657806 -1.41633
upperback -7.30007 0.999688 2.29705
thorax -0.121081 0.584465 3.32677
lowerneck -10.7596 -1.06076 0.896477
upperneck 42.5614 -2.45967 0.994451
head 17.4728 -0.727721 -0.129188
rclavicle 7.05686e-015 9.14409e-015
rhumerus -53.9261 14.2534 -90.8595
rradius 22.1159
rwrist -20.6067
rhand 26.8271 6.18714
rfingers 7.12502
rthumb 50.8331 -14.5869
lclavicle 7.05686e-015 9.14409e-015
lhumerus -55.1453 -15.3705 93.5986
lradius 44.4714
lwrist 9.25971
lhand 20.2297 17.8748
lfingers 7.12502
lthumb 44.749 41.4726
rfemur -23.6739 -7.75697 32.9239
rtibia 44.7651
rfoot 7.20031 -24.2126
rtoes 17.2674
lfemur -55.8339 7.60162 -37.6389
ltibia 41.0941
lfoot -40.6071 26.5537
ltoes 12.7209
46
root 0.491825 16.2904 -13.8552 32.1361 -3.5623 -1.55607
lowerback -13.6348 0.653624 -1.55223
upperback -7.28482 1.01013 2.30753
thorax -0.0932916 0.593381 3.41696
lowerneck -10.8242 -1.10299 0.998406
upperneck 42.6831 -2.50973 0.872117
head 17.5569 -0.744893 -0.213055
rclavicle 1.33186e-014 2.5842e-014
rhumerus -53.9979 14.2955 -90.999
rradius 22.2425
rwrist -20.8011
rhand 26.4278 6.25819
rfingers 7.12502
rthumb 50.4687 -14.7149
lclavicle 1.33186e-014 2.5842e-014
lhumerus -55.0211 -15.1344 93.5317
lradius 44.4566
lwrist 9.24851
lhand 19.9363 17.8677
lfingers 7.12502
lthumb 44.4757 41.5709
rfemur -23.8242 -7.6443 32.7882
rtibia 44.7699
rfoot 5.62693 -22.3626
rtoes 11.6814
lfemur -55.7582 7.52623 -37.7297
ltibia 40.989
lfoot -40.7234 26.3976
ltoes 12.9827
47
root 0.493835 16.2925 -13.8524 32.2504 -3.59234 -1.56837
lowerback -13.9628 0.699069 -1.59196
upperback -7.14891 1.07396 2.38741
thorax 0.217137 0.622276 3.54046
lowerneck -10.8836 -1.15433 1.05374
upperneck 42.54 -2.52233 0.688504
head 17.482 -0.765677 -0.309449
rclavicle 1.00386e-014 -2.38542e-015
rhumerus -53.9665 14.5028 -91.0779
rradius 22.667
rwrist -21.2036
rhand 26.0167 5.70626
rfingers 7.12502
rthumb 50.0929 -15.4676
lclavicle 1.00386e-014 -2.38542e-015
lhumerus -54.6911 -14.959 93.57
lradius 44.4235
lwrist 9.16496
lhand 19.6278 17.8127
lfingers 7.12502
lthumb 44.1882 41.625
rfemur -24.1111 -7.47235 32.7669
rtibia 44.7407
rfoot 8.00781 -22.5524
rtoes 8.76222
lfemur -55.863 7.38045 -37.6595
ltibia 40.9065
lfoot -40.6676 26.7495
ltoes 12.5136
48
root 0.496539 16.2921 -13.8478 32.3436 -3.48515 -1.70743
lowerback -14.3527 0.729865 -1.44872
upperback -6.93164 1.09285 2.52781
thorax 0.652038 0.621938 3.62096
lowerneck -10.9346 -1.17857 0.91995
upperneck 42.2965 -2.5087 0.685887
head 17.3547 -0.783468 -0.2832
rclavicle -2.18663e-015 5.56597e-015
rhumerus -53.6966 14.5892 -90.9414
rradius 22.7624
rwrist -21.4936
rhand 25.681 5.60953
rfingers 7.12502
rthumb 49.7856 -15.725
lclavicle -2.18663e-015 5.56597e-015
lhumerus -54.253 -14.7069 93.5931
lradius 44.2161
lwrist 8.84794
lhand 19.069 17.1949
lfingers 7.12502
lthumb 43.6669 41.2009
rfemur -24.2835 -7.28881 32.8983
rtibia 44.6485
rfoot 8.70116 -22.1503
rtoes 5.01374
lfemur -55.9503 7.32883 -37.4951
ltibia 40.8687
lfoot -40.5707 26.9892
ltoes 12.2443
